# xmcd
#
# Track frame offsets:
# 150
# 46504
# 52836
# 64808
# 84499
# 101696
# 113396
# 133011
# 150407
# 167477
# 177707
# 192271
# 206743
# 219125
# 233732
# 245232
# 254276
# 271467
# 281230
# 297970
# 316408
#
# Disc length: 4527 seconds
#
# Revision: 0
# Processed by: cddbd v1.5PL3 Copyright (c) Steve Scherf et al.
# Submitted via: Audion 3.0.2 (http://www.panic.com/audion/)
#
DISCID=2d11ad15
DTITLE=Gershwin - George and Ira Gershwin in Hollywood
DYEAR=1900
DGENRE=
TTITLE0=Overture-Medley
TTITLE1=I can't be bothered now
TTITLE2=They can't take that away from me
TTITLE3=They all laughed
TTITLE4=Let's call the whole thing off
TTITLE5=Nice work if you can get it
TTITLE6=Slap that bass
TTITLE7=Aren't you kind of glad we did?
TTITLE8=The man I love
TTITLE9=A foggy day
TTITLE10=You've got what gets me
TTITLE11=Oh lady, be good
TTITLE12=I was doing alright
TTITLE13=Love walked in
TTITLE14=Promenade
TTITLE15=(I've got) beginner's luck
TTITLE16=Things are loking up
TTITLE17=Delishious
TTITLE18=Shall we dance
TTITLE19=For you, for me, for everymore
TTITLE20=Strike up the band
EXTD=
EXTT0=
EXTT1=
EXTT2=
EXTT3=
EXTT4=
EXTT5=
EXTT6=
EXTT7=
EXTT8=
EXTT9=
EXTT10=
EXTT11=
EXTT12=
EXTT13=
EXTT14=
EXTT15=
EXTT16=
EXTT17=
EXTT18=
EXTT19=
EXTT20=
PLAYORDER=
